<?xml version="1.0" standalone="no"?>
<!DOCTYPE svg PUBLIC "-//W3C//DTD SVG 20010904//EN"
 "http://www.w3.org/TR/2001/REC-SVG-20010904/DTD/svg10.dtd">
<svg version="1.0" xmlns="http://www.w3.org/2000/svg"
 width="500.000000pt" height="500.000000pt" viewBox="0 0 500.000000 500.000000"
 preserveAspectRatio="xMidYMid meet">

<g transform="translate(0.000000,500.000000) scale(0.100000,-0.100000)"
fill="#000000" stroke="none">
<path d="M2480 2900 l0 -270 50 0 50 0 0 270 0 270 -50 0 -50 0 0 -270z"/>
<path d="M2702 3158 c-7 -7 -12 -24 -12 -38 0 -34 17 -50 55 -50 38 0 55 16
55 50 0 34 -17 50 -55 50 -17 0 -36 -5 -43 -12z"/>
<path d="M2162 3131 c-99 -34 -143 -100 -150 -226 -10 -183 67 -280 223 -279
39 0 87 6 108 13 37 12 38 14 35 54 -2 31 -7 41 -18 39 -102 -24 -128 -25
-166 -6 -52 26 -74 71 -74 154 1 89 27 145 77 167 38 15 58 13 141 -12 19 -6
24 -2 38 31 15 35 15 39 -1 50 -19 14 -103 34 -138 34 -12 -1 -46 -9 -75 -19z"/>
<path d="M3063 3010 c-24 -10 -43 -24 -43 -30 0 -20 -19 -10 -22 13 -2 18 -10
23 -45 25 l-43 3 0 -195 0 -196 55 0 55 0 0 129 c0 115 2 131 21 155 24 30 69
35 93 10 13 -12 16 -41 16 -155 l0 -139 54 0 54 0 4 134 c3 152 13 176 73 176
53 0 60 -18 63 -172 l4 -138 49 0 49 0 0 149 c0 164 -9 205 -49 225 -66 34
-154 24 -188 -21 -12 -15 -15 -15 -36 5 -23 22 -76 42 -107 42 -8 0 -34 -9
-57 -20z"/>
<path d="M3715 3024 c-89 -23 -101 -37 -70 -81 14 -19 17 -20 52 -7 21 7 50
13 66 14 32 0 67 -31 67 -60 0 -18 -7 -20 -57 -20 -75 0 -124 -14 -157 -45
-22 -20 -26 -33 -26 -78 0 -39 6 -61 20 -80 42 -53 134 -59 196 -12 l31 24 11
-25 c9 -19 19 -24 47 -24 l35 0 0 150 c0 169 -8 198 -61 226 -32 16 -119 27
-154 18z m112 -250 c-8 -45 -21 -61 -57 -69 -58 -13 -94 20 -70 65 14 26 44
39 94 39 l39 1 -6 -36z"/>
<path d="M2690 2825 l0 -195 55 0 55 0 0 195 0 195 -55 0 -55 0 0 -195z"/>
<path d="M1492 2579 c-155 -30 -300 -174 -319 -317 l-5 -39 -68 -5 c-155 -11
-270 -133 -270 -288 0 -112 60 -209 158 -257 l57 -28 540 0 540 0 55 26 c66
31 132 96 168 164 24 44 27 61 27 145 0 84 -3 102 -28 151 -34 69 -100 132
-175 167 -47 21 -71 25 -140 25 l-83 0 -24 47 c-28 56 -100 130 -159 165 -45
26 -153 55 -201 54 -16 -1 -49 -5 -73 -10z m222 -103 c63 -31 140 -112 157
-166 21 -66 30 -70 133 -63 78 5 98 3 136 -14 64 -28 107 -68 136 -125 71
-140 18 -295 -124 -365 l-57 -28 -520 1 c-575 0 -546 -3 -612 66 -103 107 -75
270 58 339 42 21 84 25 150 15 57 -10 65 -1 72 80 10 120 86 220 203 270 81
34 186 30 268 -10z"/>
<path d="M2470 2265 l0 -45 70 0 70 0 0 -210 0 -210 50 0 50 0 0 210 0 210 70
0 70 0 0 45 0 45 -190 0 -190 0 0 -45z"/>
<path d="M3015 2185 c-81 -29 -122 -109 -112 -218 6 -72 40 -127 94 -152 46
-23 162 -26 211 -6 28 12 32 18 32 53 0 33 -3 39 -16 34 -47 -18 -108 -28
-138 -22 -38 7 -76 46 -76 77 0 18 10 19 126 19 l127 0 -6 60 c-6 67 -32 117
-74 142 -42 25 -120 31 -168 13z m124 -91 c37 -47 29 -54 -54 -54 -83 0 -91 7
-54 54 15 19 30 26 54 26 24 0 39 -7 54 -26z"/>
<path d="M3505 2186 c-17 -7 -36 -20 -44 -29 -16 -20 -31 -13 -31 14 0 16 -7
19 -45 19 l-45 0 0 -195 0 -195 54 0 54 0 4 134 c3 153 13 176 75 176 50 0 63
-38 63 -190 l0 -120 50 0 50 0 0 115 c0 132 14 181 54 191 71 17 86 -13 86
-179 l0 -128 53 3 52 3 0 150 c0 133 -3 154 -21 185 -37 64 -141 76 -204 24
l-28 -24 -26 24 c-40 36 -99 45 -151 22z"/>
<path d="M4223 2193 c-12 -2 -33 -15 -47 -28 l-27 -25 -9 25 c-8 21 -16 25
-50 25 l-40 0 0 -280 0 -280 50 0 50 0 0 105 0 106 30 -23 c40 -29 119 -30
157 -2 48 36 68 89 68 184 0 93 -16 135 -65 172 -27 19 -80 29 -117 21z m53
-104 c15 -17 19 -36 19 -94 0 -58 -4 -77 -19 -94 -24 -26 -70 -27 -95 -2 -37
37 -40 154 -4 193 22 25 75 23 99 -3z"/>
<path d="M4596 2186 c-82 -31 -119 -93 -118 -198 1 -67 22 -118 64 -153 59
-50 164 -55 231 -11 103 68 103 272 0 340 -48 32 -124 41 -177 22z m123 -102
c16 -21 21 -41 21 -89 0 -48 -5 -68 -21 -89 -22 -28 -64 -35 -99 -16 -43 23
-50 160 -9 201 29 29 83 25 108 -7z"/>
</g>
</svg>
